# xmcd
#
# Track frame offsets:
#	150
#	22103
#	35286
#	52641
#	76127
#	96067
#	115805
#	133739
#	156326
#	173591
#	193190
#	215248
#	238309
#
# Disc length: 3377 seconds
#
# Revision: 1
# Processed by: cddbd v1.5.1PL0 Copyright (c) Steve Scherf et al.
# Submitted via: audiograbber 1.83.01
#
DISCID=ad0d2f0d
DTITLE=Big and Rich - Horse Of A Different Color
DYEAR=1900
DGENRE=
TTITLE0=Rollin' (The Ballad Of Big and Rich)
TTITLE1=Wild West Show
TTITLE2=Big Time
TTITLE3=Kick My Ass
TTITLE4=Six Foot Town
TTITLE5=Holy Water
TTITLE6=Saved
TTITLE7=Real World
TTITLE8=Save A Horse (Ride A Cowboy)
TTITLE9=Drinkin' 'Bout You
TTITLE10=Love Train
TTITLE11=Deadwood Mountain
TTITLE12=Live This Life
EXTD=
EXTT0=
EXTT1=
EXTT2=
EXTT3=
EXTT4=
EXTT5=
EXTT6=
EXTT7=
EXTT8=
EXTT9=
EXTT10=
EXTT11=
EXTT12=
PLAYORDER=
